<mxfile host="app.diagrams.net" modified="2024-04-17T14:21:33.796Z" agent="Mozilla/5.0 (Macintosh; Intel Mac OS X 10_15_7) AppleWebKit/537.36 (KHTML, like Gecko) Chrome/123.0.0.0 Safari/537.36" version="24.2.5" etag="oh_AEo2ryd6Ced7dwunw" type="github">
  <diagram name="Page-1" id="RByU2_p63BH_IyJmjEl-">
    <mxGraphModel>
      <root>
        <mxCell id="0" />
        <mxCell id="1" parent="0" />
      </root>
    </mxGraphModel>
  </diagram>
</mxfile>
